<?xml version="1.0" encoding="UTF-8"?>
<!DOCTYPE svg PUBLIC "-//W3C//DTD SVG 1.1//EN" "http://www.w3.org/Graphics/SVG/1.1/DTD/svg11.dtd">
<svg xmlns="http://www.w3.org/2000/svg" version="1.1" width="458px" height="545px" style="shape-rendering:geometricPrecision; text-rendering:geometricPrecision; image-rendering:optimizeQuality; fill-rule:evenodd; clip-rule:evenodd">
<g><path style="opacity:0.206" fill="#030309" d="M 231.5,38.5 C 236.161,37.8321 238.161,39.8321 237.5,44.5C 249.399,46.5647 256.566,53.5647 259,65.5C 259.798,68.7107 259.298,71.7107 257.5,74.5C 295.411,93.7056 333.245,113.039 371,132.5C 371.832,142.849 371.666,153.183 370.5,163.5C 364.5,166.5 358.5,169.5 352.5,172.5C 351.333,253.165 351.167,333.831 352,414.5C 358.088,417.794 364.255,420.961 370.5,424C 371.626,427.744 371.793,431.577 371,435.5C 325.518,459.158 279.685,482.158 233.5,504.5C 187.315,482.158 141.482,459.158 96,435.5C 95.1747,431.789 95.3414,428.122 96.5,424.5C 102.73,421.259 108.896,417.926 115,414.5C 115.833,333.831 115.667,253.165 114.5,172.5C 108.094,169.548 101.927,166.215 96,162.5C 95.3333,152.5 95.3333,142.5 96,132.5C 133.184,113.101 170.684,94.2677 208.5,76C 206.414,64.6189 210.08,55.2856 219.5,48C 222.605,46.1319 225.938,44.9652 229.5,44.5C 229.253,42.1417 229.919,40.1417 231.5,38.5 Z"/></g>
<g><path style="opacity:1" fill="#0d0e1b" d="M 253.5,76.5 C 253.5,85.5 253.5,94.5 253.5,103.5C 253.5,103.833 253.5,104.167 253.5,104.5C 253.815,108.371 253.482,112.038 252.5,115.5C 252.667,103.162 252.5,90.8288 252,78.5C 251.831,90.6737 251.331,102.674 250.5,114.5C 250.5,102.833 250.5,91.1667 250.5,79.5C 249.5,79.5 248.5,79.5 247.5,79.5C 249.181,77.9925 251.181,76.9925 253.5,76.5 Z"/></g>
<g><path style="opacity:1" fill="#4550c2" d="M 213.5,76.5 C 213.036,90.265 213.536,103.932 215,117.5C 222.59,122.986 231.09,124.986 240.5,123.5C 263.339,123.169 286.006,123.503 308.5,124.5C 283.405,137.381 258.072,149.714 232.5,161.5C 201.716,145.608 170.716,129.941 139.5,114.5C 138.702,114.043 138.369,113.376 138.5,112.5C 162.14,100.68 185.807,88.8466 209.5,77C 210.793,76.51 212.127,76.3433 213.5,76.5 Z"/></g>
<g><path style="opacity:1" fill="#454fc1" d="M 253.5,76.5 C 254.5,76.5 255.5,76.5 256.5,76.5C 273.833,85.1667 291.167,93.8333 308.5,102.5C 290.341,103.497 272.008,103.83 253.5,103.5C 253.5,94.5 253.5,85.5 253.5,76.5 Z"/></g>
<g><path style="opacity:1" fill="#2f3674" d="M 232.5,46.5 C 233.5,46.5 234.5,46.5 235.5,46.5C 236.725,47.1522 237.392,48.3189 237.5,50C 238.56,58.4806 238.726,66.9806 238,75.5C 237.764,77.8452 236.93,79.8452 235.5,81.5C 234.167,81.5 232.833,81.5 231.5,81.5C 227.183,81.9166 223.183,81.2499 219.5,79.5C 222.518,79.7038 225.518,80.0371 228.5,80.5C 229.833,80.5 231.167,80.5 232.5,80.5C 232.5,69.1667 232.5,57.8333 232.5,46.5 Z"/></g>
<g><path style="opacity:1" fill="#434ebc" d="M 224.5,47.5 C 225.5,47.5 226.5,47.5 227.5,47.5C 227.993,58.6665 228.326,69.6665 228.5,80.5C 225.518,80.0371 222.518,79.7038 219.5,79.5C 217.544,78.5082 215.544,77.5082 213.5,76.5C 209.244,71.8059 208.41,66.4726 211,60.5C 214.07,54.595 218.57,50.2617 224.5,47.5 Z"/></g>
<g><path style="opacity:1" fill="#24284d" d="M 235.5,46.5 C 246.091,47.2023 253.258,52.869 257,63.5C 258.151,67.8288 257.318,71.6621 254.5,75C 255.416,75.2784 256.082,75.7784 256.5,76.5C 255.5,76.5 254.5,76.5 253.5,76.5C 251.181,76.9925 249.181,77.9925 247.5,79.5C 246.329,80.3446 244.995,81.0113 243.5,81.5C 240.995,80.5033 238.328,80.5033 235.5,81.5C 236.93,79.8452 237.764,77.8452 238,75.5C 238.726,66.9806 238.56,58.4806 237.5,50C 237.392,48.3189 236.725,47.1522 235.5,46.5 Z"/></g>
<g><path style="opacity:1" fill="#3d46a4" d="M 232.5,46.5 C 232.5,57.8333 232.5,69.1667 232.5,80.5C 231.167,80.5 229.833,80.5 228.5,80.5C 228.326,69.6665 227.993,58.6665 227.5,47.5C 226.5,47.5 225.5,47.5 224.5,47.5C 226.937,45.5606 229.603,45.2272 232.5,46.5 Z"/></g>
<g><path style="opacity:1" fill="#2b3168" d="M 308.5,102.5 C 309.167,102.833 309.833,103.167 310.5,103.5C 291.674,104.497 272.674,104.83 253.5,104.5C 253.5,104.167 253.5,103.833 253.5,103.5C 272.008,103.83 290.341,103.497 308.5,102.5 Z"/></g>
<g><path style="opacity:1" fill="#23274a" d="M 310.5,103.5 C 316.83,106.33 322.83,109.663 328.5,113.5C 322.757,117.038 316.757,120.038 310.5,122.5C 288.5,122.5 266.5,122.5 244.5,122.5C 248.365,121.563 251.032,119.23 252.5,115.5C 253.482,112.038 253.815,108.371 253.5,104.5C 272.674,104.83 291.674,104.497 310.5,103.5 Z"/></g>
<g><path style="opacity:1" fill="#444ebe" d="M 136.5,123.5 C 142.182,127.008 148.182,130.008 154.5,132.5C 158.849,135.341 163.516,137.674 168.5,139.5C 175.516,143.675 182.849,147.341 190.5,150.5C 190.842,151.338 191.508,151.672 192.5,151.5C 198.182,155.008 204.182,158.008 210.5,160.5C 211.514,161.674 212.847,162.34 214.5,162.5C 220.614,166.059 226.947,169.392 233.5,172.5C 259.833,159.333 286.167,146.167 312.5,133C 318.167,132.333 323.833,132.333 329.5,133C 298.054,149.389 266.388,165.223 234.5,180.5C 195.248,162.207 156.581,142.874 118.5,122.5C 123.807,119.847 129.14,117.18 134.5,114.5C 135.167,117.642 135.834,120.642 136.5,123.5 Z"/></g>
<g><path style="opacity:1" fill="#293182" d="M 137.5,114.5 C 168.977,130.739 200.643,146.739 232.5,162.5C 232.664,165.187 232.497,167.854 232,170.5C 226.448,167.139 220.614,164.473 214.5,162.5C 212.847,162.34 211.514,161.674 210.5,160.5C 205.086,156.46 199.086,153.46 192.5,151.5C 191.508,151.672 190.842,151.338 190.5,150.5C 183.752,145.793 176.419,142.126 168.5,139.5C 164.419,136.126 159.753,133.793 154.5,132.5C 148.182,130.008 142.182,127.008 136.5,123.5C 136.19,120.287 136.523,117.287 137.5,114.5 Z"/></g>
<g><path style="opacity:1" fill="#1a1d35" d="M 213.5,76.5 C 215.544,77.5082 217.544,78.5082 219.5,79.5C 218.5,79.5 217.5,79.5 216.5,79.5C 216.333,91.1714 216.5,102.838 217,114.5C 221.102,119.147 226.269,121.147 232.5,120.5C 232.814,107.421 232.48,94.4206 231.5,81.5C 232.833,81.5 234.167,81.5 235.5,81.5C 238.328,80.5033 240.995,80.5033 243.5,81.5C 240.833,81.8333 238.167,82.1667 235.5,82.5C 235.5,95.1667 235.5,107.833 235.5,120.5C 241.48,120.764 246.48,118.764 250.5,114.5C 251.331,102.674 251.831,90.6737 252,78.5C 252.5,90.8288 252.667,103.162 252.5,115.5C 251.032,119.23 248.365,121.563 244.5,122.5C 242.901,122.232 241.568,122.566 240.5,123.5C 231.09,124.986 222.59,122.986 215,117.5C 213.536,103.932 213.036,90.265 213.5,76.5 Z"/></g>
<g><path style="opacity:1" fill="#afb7f2" d="M 219.5,79.5 C 223.183,81.2499 227.183,81.9166 231.5,81.5C 232.48,94.4206 232.814,107.421 232.5,120.5C 226.269,121.147 221.102,119.147 217,114.5C 216.5,102.838 216.333,91.1714 216.5,79.5C 217.5,79.5 218.5,79.5 219.5,79.5 Z"/></g>
<g><path style="opacity:1" fill="#4f547e" d="M 247.5,79.5 C 248.5,79.5 249.5,79.5 250.5,79.5C 250.5,91.1667 250.5,102.833 250.5,114.5C 246.48,118.764 241.48,120.764 235.5,120.5C 235.5,107.833 235.5,95.1667 235.5,82.5C 238.167,82.1667 240.833,81.8333 243.5,81.5C 244.995,81.0113 246.329,80.3446 247.5,79.5 Z"/></g>
<g><path style="opacity:1" fill="#2d336d" d="M 240.5,123.5 C 241.568,122.566 242.901,122.232 244.5,122.5C 266.5,122.5 288.5,122.5 310.5,122.5C 310.167,123.167 309.833,123.833 309.5,124.5C 309.167,124.5 308.833,124.5 308.5,124.5C 286.006,123.503 263.339,123.169 240.5,123.5 Z"/></g>
<g><path style="opacity:1" fill="#444fbf" d="M 115.5,124.5 C 116.201,127.563 116.868,130.73 117.5,134C 155.86,153.18 194.193,172.347 232.5,191.5C 265.713,175.894 298.713,159.727 331.5,143C 337.349,142.182 343.015,142.348 348.5,143.5C 310.394,162.385 272.728,181.385 235.5,200.5C 234.5,200.5 233.5,200.5 232.5,200.5C 188.151,177.659 143.484,155.325 98.5,133.5C 103.684,129.74 109.35,126.74 115.5,124.5 Z"/></g>
<g><path style="opacity:1" fill="#202445" d="M 368.5,133.5 C 361.55,136.308 354.883,139.642 348.5,143.5C 343.015,142.348 337.349,142.182 331.5,143C 298.713,159.727 265.713,175.894 232.5,191.5C 233.167,187.833 233.833,184.167 234.5,180.5C 266.388,165.223 298.054,149.389 329.5,133C 323.833,132.333 318.167,132.333 312.5,133C 286.167,146.167 259.833,159.333 233.5,172.5C 226.947,169.392 220.614,166.059 214.5,162.5C 220.614,164.473 226.448,167.139 232,170.5C 232.497,167.854 232.664,165.187 232.5,162.5C 232.5,162.167 232.5,161.833 232.5,161.5C 258.072,149.714 283.405,137.381 308.5,124.5C 308.833,124.5 309.167,124.5 309.5,124.5C 316.511,121.578 323.344,118.245 330,114.5C 330.509,126.446 331.342,126.446 332.5,114.5C 338.167,117.333 343.833,120.167 349.5,123C 343.009,126.078 336.675,129.412 330.5,133C 337.292,130.363 344.125,127.53 351,124.5C 357.383,126.607 363.217,129.607 368.5,133.5 Z"/></g>
<g><path style="opacity:1" fill="#1e235a" d="M 98.5,133.5 C 143.484,155.325 188.151,177.659 232.5,200.5C 233.833,210.5 233.833,220.5 232.5,230.5C 229.968,229.404 227.635,228.071 225.5,226.5C 225.158,225.662 224.492,225.328 223.5,225.5C 221.181,225.008 219.181,224.008 217.5,222.5C 217.158,221.662 216.492,221.328 215.5,221.5C 213.181,221.008 211.181,220.008 209.5,218.5C 208.739,217.609 207.739,216.942 206.5,216.5C 205.833,219.167 205.167,221.833 204.5,224.5C 203.893,224.376 203.56,224.043 203.5,223.5C 204.629,221.372 204.796,219.039 204,216.5C 200.356,214.599 196.856,212.599 193.5,210.5C 193.158,209.662 192.492,209.328 191.5,209.5C 191.158,208.662 190.492,208.328 189.5,208.5C 188.486,207.326 187.153,206.66 185.5,206.5C 183.5,205.833 181.5,205.167 179.5,204.5C 179.5,204.167 179.5,203.833 179.5,203.5C 178.486,202.326 177.153,201.66 175.5,201.5C 173.16,200.914 170.993,199.914 169,198.5C 168.831,214.672 168.331,230.672 167.5,246.5C 167.5,244.5 167.5,242.5 167.5,240.5C 167.5,235.833 167.5,231.167 167.5,226.5C 167.827,216.652 167.494,206.986 166.5,197.5C 164.632,196.737 162.965,195.737 161.5,194.5C 159.819,192.992 157.819,191.992 155.5,191.5C 151.849,190.341 148.515,188.674 145.5,186.5C 144.486,185.326 143.153,184.66 141.5,184.5C 140.486,183.326 139.153,182.66 137.5,182.5C 135.181,182.008 133.181,181.008 131.5,179.5C 130.486,178.326 129.153,177.66 127.5,177.5C 127.158,176.662 126.492,176.328 125.5,176.5C 123.072,175.788 120.739,174.788 118.5,173.5C 117.167,257.5 117.167,341.5 118.5,425.5C 120.911,426.361 122.911,427.694 124.5,429.5C 121.492,428.58 118.659,427.246 116,425.5C 115.817,422.635 115.317,419.969 114.5,417.5C 116.163,335.809 117.163,253.975 117.5,172C 111.167,168.833 104.833,165.667 98.5,162.5C 97.1775,152.675 97.1775,143.008 98.5,133.5 Z"/></g>
<g><path style="opacity:1" fill="#050506" d="M 98.5,136.5 C 142.713,157.606 186.713,179.273 230.5,201.5C 231.665,210.147 231.832,218.814 231,227.5C 187.244,205.372 143.411,183.372 99.5,161.5C 98.5021,153.193 98.1688,144.86 98.5,136.5 Z"/></g>
<g><path style="opacity:1" fill="#191e4b" d="M 138.5,112.5 C 138.369,113.376 138.702,114.043 139.5,114.5C 170.716,129.941 201.716,145.608 232.5,161.5C 232.5,161.833 232.5,162.167 232.5,162.5C 200.643,146.739 168.977,130.739 137.5,114.5C 137.328,113.508 137.662,112.842 138.5,112.5 Z"/></g>
<g><path style="opacity:1" fill="#191d4a" d="M 154.5,132.5 C 159.753,133.793 164.419,136.126 168.5,139.5C 163.516,137.674 158.849,135.341 154.5,132.5 Z"/></g>
<g><path style="opacity:1" fill="#191d4a" d="M 168.5,139.5 C 176.419,142.126 183.752,145.793 190.5,150.5C 182.849,147.341 175.516,143.675 168.5,139.5 Z"/></g>
<g><path style="opacity:1" fill="#1a1e4c" d="M 118.5,122.5 C 156.581,142.874 195.248,162.207 234.5,180.5C 233.833,184.167 233.167,187.833 232.5,191.5C 194.193,172.347 155.86,153.18 117.5,134C 116.868,130.73 116.201,127.563 115.5,124.5C 116.29,123.599 117.29,122.932 118.5,122.5 Z"/></g>
<g><path style="opacity:1" fill="#2a3285" d="M 117.5,124.5 C 155.473,143.487 193.473,162.487 231.5,181.5C 232.833,184.167 232.833,186.833 231.5,189.5C 193.833,170.667 156.167,151.833 118.5,133C 117.556,130.281 117.223,127.448 117.5,124.5 Z"/></g>
<g><path style="opacity:1" fill="#191e4b" d="M 192.5,151.5 C 199.086,153.46 205.086,156.46 210.5,160.5C 204.182,158.008 198.182,155.008 192.5,151.5 Z"/></g>
<g><path style="opacity:1" fill="#cccccc" d="M 135.5,170.5 C 135.5,170.833 135.5,171.167 135.5,171.5C 131.053,171.274 129.053,168.941 129.5,164.5C 129.833,162.833 130.167,161.167 130.5,159.5C 131.167,162.5 131.833,165.5 132.5,168.5C 133.739,168.942 134.739,169.609 135.5,170.5 Z"/></g>
<g><path style="opacity:1" fill="#c8c8c8" d="M 109.5,149.5 C 113.378,150.266 116.378,152.266 118.5,155.5C 122.987,154.329 126.154,155.995 128,160.5C 128.124,167.326 125.457,168.326 120,163.5C 118.249,161.51 117.249,159.177 117,156.5C 115.293,157.138 113.46,157.138 111.5,156.5C 111.719,157.675 111.386,158.675 110.5,159.5C 109.513,156.232 109.18,152.898 109.5,149.5 Z"/></g>
<g><path style="opacity:1" fill="#151515" d="M 120.5,156.5 C 125.097,157.217 126.764,159.717 125.5,164C 120.727,163.628 119.06,161.128 120.5,156.5 Z"/></g>
<g><path style="opacity:1" fill="#262626" d="M 111.5,151.5 C 113.703,152.052 114.536,153.385 114,155.5C 112.294,154.692 111.461,153.359 111.5,151.5 Z"/></g>
<g><path style="opacity:1" fill="#909090" d="M 138.5,163.5 C 138.81,166.713 138.477,169.713 137.5,172.5C 136.833,172.167 136.167,171.833 135.5,171.5C 135.5,171.167 135.5,170.833 135.5,170.5C 136.166,167.972 136.832,165.306 137.5,162.5C 138.107,162.624 138.44,162.957 138.5,163.5 Z"/></g>
<g><path style="opacity:1" fill="#575757" d="M 138.5,163.5 C 139.806,166.687 139.806,170.02 138.5,173.5C 137.893,173.376 137.56,173.043 137.5,172.5C 138.477,169.713 138.81,166.713 138.5,163.5 Z"/></g>
<g><path style="opacity:1" fill="#d9d9d9" d="M 150.5,169.5 C 152.636,170.403 154.636,171.569 156.5,173C 151.359,172.909 151.359,174.243 156.5,177C 155.049,176.737 153.716,176.904 152.5,177.5C 153.945,179.063 155.611,180.396 157.5,181.5C 155.223,181.985 153.056,181.319 151,179.5C 150.502,176.183 150.335,172.85 150.5,169.5 Z"/></g>
<g><path style="opacity:1" fill="#2a3285" d="M 125.5,176.5 C 125.5,260.833 125.5,345.167 125.5,429.5C 125.5,429.833 125.5,430.167 125.5,430.5C 124.833,430.5 124.5,430.167 124.5,429.5C 122.911,427.694 120.911,426.361 118.5,425.5C 117.167,341.5 117.167,257.5 118.5,173.5C 120.739,174.788 123.072,175.788 125.5,176.5 Z"/></g>
<g><path style="opacity:1" fill="#1b1f39" d="M 368.5,133.5 C 369.823,143.008 369.823,152.675 368.5,162.5C 362.167,165.667 355.833,168.833 349.5,172C 349.837,253.975 350.837,335.809 352.5,417.5C 351.683,419.969 351.183,422.635 351,425.5C 350.282,426.451 349.449,426.617 348.5,426C 349.831,341.901 349.831,257.735 348.5,173.5C 346.261,174.788 343.928,175.788 341.5,176.5C 340.508,176.328 339.842,176.662 339.5,177.5C 338.761,177.369 338.094,177.536 337.5,178C 338.833,261.598 338.833,345.098 337.5,428.5C 337.833,345.497 337.5,262.497 336.5,179.5C 334.261,180.788 331.928,181.788 329.5,182.5C 328.761,182.369 328.094,182.536 327.5,183C 328.767,199.78 328.767,216.28 327.5,232.5C 318.729,237.552 310.062,241.886 301.5,245.5C 300.28,243.95 300.28,242.284 301.5,240.5C 303.181,238.992 305.181,237.992 307.5,237.5C 309.819,237.008 311.819,236.008 313.5,234.5C 316.515,232.326 319.849,230.659 323.5,229.5C 324.174,214.765 324.841,199.931 325.5,185C 323.86,184.652 322.527,185.152 321.5,186.5C 318.485,188.674 315.151,190.341 311.5,191.5C 309.181,191.992 307.181,192.992 305.5,194.5C 304.486,195.674 303.153,196.34 301.5,196.5C 300.078,196.709 298.745,197.209 297.5,198C 299.476,213.927 300.143,230.093 299.5,246.5C 298.504,231.009 298.17,215.342 298.5,199.5C 296.079,199.878 293.746,200.545 291.5,201.5C 289.847,201.66 288.514,202.326 287.5,203.5C 285.819,205.008 283.819,206.008 281.5,206.5C 279.847,206.66 278.514,207.326 277.5,208.5C 277.158,209.338 276.492,209.672 275.5,209.5C 274.508,209.328 273.842,209.662 273.5,210.5C 270.485,212.674 267.151,214.341 263.5,215.5C 261.181,215.992 259.181,216.992 257.5,218.5C 255.819,220.008 253.819,221.008 251.5,221.5C 250.508,221.328 249.842,221.662 249.5,222.5C 248.152,223.601 246.652,224.601 245,225.5C 244.5,308.833 244.333,392.166 244.5,475.5C 243.833,392.332 243.167,308.999 242.5,225.5C 241.893,225.624 241.56,225.957 241.5,226.5C 239.819,228.008 237.819,229.008 235.5,229.5C 234.167,220.167 234.167,210.833 235.5,201.5C 235.5,201.167 235.5,200.833 235.5,200.5C 272.728,181.385 310.394,162.385 348.5,143.5C 354.883,139.642 361.55,136.308 368.5,133.5 Z"/></g>
<g><path style="opacity:1" fill="#020203" d="M 235.5,201.5 C 279.722,179.556 324.055,157.889 368.5,136.5C 368.831,144.86 368.498,153.193 367.5,161.5C 323.589,183.372 279.756,205.372 236,227.5C 235.5,218.84 235.334,210.173 235.5,201.5 Z"/></g>
<g><path style="opacity:1" fill="#323232" d="M 331.5,161.5 C 332.978,161.238 334.311,161.571 335.5,162.5C 334.305,163.967 334.305,165.467 335.5,167C 334.593,169.964 332.593,171.798 329.5,172.5C 328.345,169.554 328.179,166.554 329,163.5C 329.995,162.934 330.828,162.267 331.5,161.5 Z"/></g>
<g><path style="opacity:1" fill="#3a3a3a" d="M 342.5,155.5 C 345.127,155.293 346.793,156.46 347.5,159C 346.688,163.644 344.021,166.477 339.5,167.5C 337.539,166.921 336.539,165.587 336.5,163.5C 337.548,160.051 339.548,157.384 342.5,155.5 Z"/></g>
<g><path style="opacity:1" fill="#060606" d="M 342.5,157.5 C 345.902,158.558 346.402,160.558 344,163.5C 341.778,166.303 339.945,166.137 338.5,163C 339.007,160.455 340.341,158.621 342.5,157.5 Z"/></g>
<g><path style="opacity:1" fill="#3b3b3b" d="M 355.5,149.5 C 356.043,149.56 356.376,149.893 356.5,150.5C 353.833,153.167 353.833,155.833 356.5,158.5C 356.167,158.833 355.833,159.167 355.5,159.5C 354.5,158.833 353.5,158.167 352.5,157.5C 351.684,159.287 350.684,160.954 349.5,162.5C 349.167,162.167 348.833,161.833 348.5,161.5C 351.1,158.959 351.1,156.459 348.5,154C 349.749,152.176 350.915,152.343 352,154.5C 353.176,152.804 354.343,151.138 355.5,149.5 Z"/></g>
<g><path style="opacity:1" fill="#23274a" d="M 352.5,417.5 C 357.625,419.562 362.625,421.896 367.5,424.5C 367.631,425.376 367.298,426.043 366.5,426.5C 328.268,445.783 289.935,464.783 251.5,483.5C 246.5,483.5 241.5,483.5 236.5,483.5C 235.172,441.378 234.505,399.045 234.5,356.5C 234.503,314.096 234.836,271.763 235.5,229.5C 237.819,229.008 239.819,228.008 241.5,226.5C 242.167,310.668 242.833,395.001 243.5,479.5C 275.383,463.726 307.05,447.726 338.5,431.5C 339.922,431.291 341.255,430.791 342.5,430C 341.502,345.571 341.168,261.071 341.5,176.5C 343.928,175.788 346.261,174.788 348.5,173.5C 349.831,257.735 349.831,341.901 348.5,426C 349.449,426.617 350.282,426.451 351,425.5C 351.183,422.635 351.683,419.969 352.5,417.5 Z"/></g>
<g><path style="opacity:1" fill="#cfcfcf" d="M 140.5,166.5 C 142.527,166.338 144.527,166.505 146.5,167C 148.007,167.837 148.507,169.004 148,170.5C 146.556,168.845 144.722,168.178 142.5,168.5C 142.357,170.262 142.691,171.929 143.5,173.5C 145.453,174.761 147.453,175.927 149.5,177C 145.507,177.753 142.674,176.253 141,172.5C 140.505,170.527 140.338,168.527 140.5,166.5 Z"/></g>
<g><path style="opacity:1" fill="#151836" d="M 125.5,176.5 C 126.492,176.328 127.158,176.662 127.5,177.5C 128.164,261.84 127.497,345.84 125.5,429.5C 125.5,345.167 125.5,260.833 125.5,176.5 Z"/></g>
<g><path style="opacity:1" fill="#0a0b16" d="M 339.5,177.5 C 339.842,176.662 340.508,176.328 341.5,176.5C 341.168,261.071 341.502,345.571 342.5,430C 341.255,430.791 339.922,431.291 338.5,431.5C 338.783,430.711 339.283,430.044 340,429.5C 340.832,345.332 340.666,261.332 339.5,177.5 Z"/></g>
<g><path style="opacity:1" fill="#2a3182" d="M 131.5,179.5 C 133.181,181.008 135.181,182.008 137.5,182.5C 137.167,199.18 137.501,215.847 138.5,232.5C 148.066,237.45 157.733,242.117 167.5,246.5C 168.331,230.672 168.831,214.672 169,198.5C 170.993,199.914 173.16,200.914 175.5,201.5C 176.497,285.096 176.83,368.763 176.5,452.5C 160.615,444.641 144.782,436.641 129,428.5C 128.5,345.501 128.333,262.501 128.5,179.5C 129.5,179.5 130.5,179.5 131.5,179.5 Z"/></g>
<g><path style="opacity:1" fill="#727272" d="M 169.5,182.5 C 168.849,181.909 168.182,181.243 167.5,180.5C 166.914,180.709 166.414,181.043 166,181.5C 164.764,177.197 165.598,176.197 168.5,178.5C 169.429,179.689 169.762,181.022 169.5,182.5 Z"/></g>
<g><path style="opacity:1" fill="#232749" d="M 337.5,428.5 C 322.167,436.5 306.833,444.5 291.5,452.5C 290.169,368.931 290.169,285.264 291.5,201.5C 293.746,200.545 296.079,199.878 298.5,199.5C 298.17,215.342 298.504,231.009 299.5,246.5C 300.492,246.672 301.158,246.338 301.5,245.5C 310.062,241.886 318.729,237.552 327.5,232.5C 329.485,216.2 330.152,199.534 329.5,182.5C 331.928,181.788 334.261,180.788 336.5,179.5C 337.5,262.497 337.833,345.497 337.5,428.5 Z"/></g>
<g><path style="opacity:1" fill="#646464" d="M 169.5,182.5 C 171.163,178.966 173.329,178.966 176,182.5C 176.866,186.807 177.866,187.14 179,183.5C 179.333,184.167 179.667,184.833 180,185.5C 180.718,184.549 181.551,184.383 182.5,185C 181.809,186.067 181.309,187.234 181,188.5C 176.911,186.873 173.078,184.873 169.5,182.5 Z"/></g>
<g><path style="opacity:1" fill="#090a14" d="M 329.5,182.5 C 330.152,199.534 329.485,216.2 327.5,232.5C 328.767,216.28 328.767,199.78 327.5,183C 328.094,182.536 328.761,182.369 329.5,182.5 Z"/></g>
<g><path style="opacity:1" fill="#3f3f3f" d="M 291.5,181.5 C 292.239,181.369 292.906,181.536 293.5,182C 291.833,183.167 290.167,184.333 288.5,185.5C 290.108,186.242 291.775,186.409 293.5,186C 291.619,187.102 289.952,188.435 288.5,190C 288.667,190.5 288.833,191 289,191.5C 290.337,190.235 291.837,189.735 293.5,190C 291.751,191.292 289.918,192.458 288,193.5C 287.176,190.118 287.343,186.784 288.5,183.5C 289.739,183.058 290.739,182.391 291.5,181.5 Z"/></g>
<g><path style="opacity:1" fill="#4c517a" d="M 321.5,186.5 C 322.725,187.152 323.392,188.319 323.5,190C 323.91,192.575 322.91,194.242 320.5,195C 317.5,196.5 314.5,198 311.5,199.5C 310.271,196.801 310.271,194.135 311.5,191.5C 315.151,190.341 318.485,188.674 321.5,186.5 Z"/></g>
<g><path style="opacity:1" fill="#b0b8f3" d="M 145.5,186.5 C 148.515,188.674 151.849,190.341 155.5,191.5C 156.729,194.135 156.729,196.801 155.5,199.5C 151.588,197.628 147.755,195.628 144,193.5C 143.833,192.333 143.667,191.167 143.5,190C 143.608,188.319 144.275,187.152 145.5,186.5 Z"/></g>
<g><path style="opacity:1" fill="#707070" d="M 172.5,186.5 C 174.273,187.314 174.773,188.648 174,190.5C 172.601,189.773 171.101,189.273 169.5,189C 170.942,188.623 171.942,187.79 172.5,186.5 Z"/></g>
<g><path style="opacity:1" fill="#3a3a3a" d="M 273.5,190.5 C 274.765,191.514 275.431,193.014 275.5,195C 275.577,197.051 275.077,198.884 274,200.5C 273.502,197.183 273.335,193.85 273.5,190.5 Z"/></g>
<g><path style="opacity:1" fill="#b3bbf8" d="M 161.5,194.5 C 162.965,195.737 164.632,196.737 166.5,197.5C 167.59,204.244 165.59,205.744 160.5,202C 159.892,200.769 159.559,199.436 159.5,198C 159.608,196.319 160.275,195.152 161.5,194.5 Z"/></g>
<g><path style="opacity:1" fill="#3c3c3c" d="M 266.5,193.5 C 268.22,195.658 269.053,198.325 269,201.5C 270.246,200.228 271.413,199.895 272.5,200.5C 270.999,201.752 269.332,202.752 267.5,203.5C 266.513,200.232 266.18,196.898 266.5,193.5 Z"/></g>
<g><path style="opacity:1" fill="#4e537d" d="M 305.5,194.5 C 306.725,195.152 307.392,196.319 307.5,198C 307.91,200.575 306.91,202.242 304.5,203C 303.5,203.5 302.5,204 301.5,204.5C 300.271,201.801 300.271,199.135 301.5,196.5C 303.153,196.34 304.486,195.674 305.5,194.5 Z"/></g>
<g><path style="opacity:1" fill="#3a3a3a" d="M 282.5,185.5 C 283.675,185.281 284.675,185.614 285.5,186.5C 280.834,187.317 278.667,189.984 279,194.5C 281.54,195.876 283.54,195.21 285,192.5C 284.813,195.356 283.146,197.023 280,197.5C 279.228,197.355 278.561,197.022 278,196.5C 276.776,191.626 278.276,187.959 282.5,185.5 Z"/></g>
<g><path style="opacity:1" fill="#d2d2d2" d="M 201.5,195.5 C 208.404,196.549 211.07,200.382 209.5,207C 201.815,206.819 199.148,202.986 201.5,195.5 Z"/></g>
<g><path style="opacity:1" fill="#131313" d="M 202.5,197.5 C 207.119,198.127 209.119,200.794 208.5,205.5C 203.629,205.118 201.629,202.451 202.5,197.5 Z"/></g>
<g><path style="opacity:1" fill="#dadada" d="M 197.5,198.5 C 198.434,199.568 198.768,200.901 198.5,202.5C 196.323,202.414 194.323,201.747 192.5,200.5C 191.167,197.167 191.167,193.833 192.5,190.5C 197.232,191.518 198.898,194.185 197.5,198.5 Z"/></g>
<g><path style="opacity:1" fill="#252525" d="M 197.5,198.5 C 196.352,200.838 195.018,200.671 193.5,198C 193.667,197.5 193.833,197 194,196.5C 195.113,197.305 196.279,197.972 197.5,198.5 Z"/></g>
<g><path style="opacity:1" fill="#222222" d="M 193.5,192.5 C 197.297,193.911 197.297,194.911 193.5,195.5C 193.5,194.5 193.5,193.5 193.5,192.5 Z"/></g>
<g><path style="opacity:1" fill="#111335" d="M 175.5,201.5 C 177.153,201.66 178.486,202.326 179.5,203.5C 177.503,286.16 176.836,369.16 177.5,452.5C 177.167,452.5 176.833,452.5 176.5,452.5C 176.83,368.763 176.497,285.096 175.5,201.5 Z"/></g>
<g><path style="opacity:1" fill="#0a0c16" d="M 291.5,201.5 C 290.169,285.264 290.169,368.931 291.5,452.5C 291.158,453.338 290.492,453.672 289.5,453.5C 290.164,369.827 289.497,286.493 287.5,203.5C 288.514,202.326 289.847,201.66 291.5,201.5 Z"/></g>
<g><path style="opacity:1" fill="#1a1c2e" d="M 323.5,229.5 C 323.666,224.489 323.499,219.489 323,214.5C 319.245,216.628 315.412,218.628 311.5,220.5C 310.507,225.12 310.173,229.786 310.5,234.5C 311.5,234.5 312.5,234.5 313.5,234.5C 311.819,236.008 309.819,237.008 307.5,237.5C 307.666,232.489 307.499,227.489 307,222.5C 305.247,223.627 303.413,224.627 301.5,225.5C 300.186,230.652 300.186,235.652 301.5,240.5C 300.28,242.284 300.28,243.95 301.5,245.5C 301.158,246.338 300.492,246.672 299.5,246.5C 300.143,230.093 299.476,213.927 297.5,198C 298.745,197.209 300.078,196.709 301.5,196.5C 300.271,199.135 300.271,201.801 301.5,204.5C 302.5,204 303.5,203.5 304.5,203C 306.91,202.242 307.91,200.575 307.5,198C 307.392,196.319 306.725,195.152 305.5,194.5C 307.181,192.992 309.181,191.992 311.5,191.5C 310.271,194.135 310.271,196.801 311.5,199.5C 314.5,198 317.5,196.5 320.5,195C 322.91,194.242 323.91,192.575 323.5,190C 323.392,188.319 322.725,187.152 321.5,186.5C 322.527,185.152 323.86,184.652 325.5,185C 324.841,199.931 324.174,214.765 323.5,229.5 Z"/></g>
<g><path style="opacity:1" fill="#4e537c" d="M 321.5,197.5 C 322.805,199.397 323.471,201.731 323.5,204.5C 323.333,206.833 323.167,209.167 323,211.5C 319.441,213.864 315.608,215.531 311.5,216.5C 311.173,211.786 311.507,207.12 312.5,202.5C 315.724,201.059 318.724,199.392 321.5,197.5 Z"/></g>
<g><path style="opacity:1" fill="#2a3283" d="M 179.5,204.5 C 181.5,205.167 183.5,205.833 185.5,206.5C 186.153,223.265 186.82,239.931 187.5,256.5C 196.742,261.954 206.409,266.62 216.5,270.5C 216.17,254.325 216.504,238.325 217.5,222.5C 219.181,224.008 221.181,225.008 223.5,225.5C 223.833,308.836 223.5,392.169 222.5,475.5C 207.807,468.153 193.14,460.82 178.5,453.5C 178.5,402.5 178.5,351.5 178.5,300.5C 180.909,302.29 182.576,301.79 183.5,299C 180.833,293 180.833,287 183.5,281C 182.257,278.697 180.591,278.197 178.5,279.5C 178.169,254.328 178.502,229.328 179.5,204.5 Z"/></g>
<g><path style="opacity:1" fill="#2a2a2a" d="M 249.5,202.5 C 250.833,202.5 252.167,202.5 253.5,202.5C 251.536,206.145 249.536,209.812 247.5,213.5C 246.345,210.554 246.179,207.554 247,204.5C 247.995,203.934 248.828,203.267 249.5,202.5 Z"/></g>
<g><path style="opacity:1" fill="#3a3a3a" d="M 260.5,196.5 C 261.822,196.33 262.989,196.663 264,197.5C 265.476,204.679 262.643,208.179 255.5,208C 253.989,202.849 255.656,199.016 260.5,196.5 Z"/></g>
<g><path style="opacity:1" fill="#070707" d="M 259.5,198.5 C 260.5,198.5 261.5,198.5 262.5,198.5C 263.815,203.836 261.815,206.503 256.5,206.5C 256.016,203.212 257.016,200.545 259.5,198.5 Z"/></g>
<g><path style="opacity:1" fill="#232749" d="M 287.5,203.5 C 289.497,286.493 290.164,369.827 289.5,453.5C 274.373,460.564 259.373,467.897 244.5,475.5C 244.333,392.166 244.5,308.833 245,225.5C 246.652,224.601 248.152,223.601 249.5,222.5C 250.331,238.662 250.831,254.995 251,271.5C 251.75,270.874 252.584,270.374 253.5,270C 250.982,268.19 250.982,266.357 253.5,264.5C 254.848,263.399 256.348,262.399 258,261.5C 258.499,256.845 258.666,252.179 258.5,247.5C 259.166,252.017 259.833,256.683 260.5,261.5C 261.739,261.058 262.739,260.391 263.5,259.5C 266.515,257.326 269.849,255.659 273.5,254.5C 276.483,254.433 278.15,255.433 278.5,257.5C 279.086,257.291 279.586,256.957 280,256.5C 280.181,239.76 280.681,223.093 281.5,206.5C 283.819,206.008 285.819,205.008 287.5,203.5 Z"/></g>
<g><path style="opacity:1" fill="#4e537d" d="M 305.5,205.5 C 306.805,207.397 307.471,209.731 307.5,212.5C 308.897,217.972 306.897,221.306 301.5,222.5C 300.338,217.869 300.172,213.202 301,208.5C 302.652,207.601 304.152,206.601 305.5,205.5 Z"/></g>
<g><path style="opacity:1" fill="#090917" d="M 185.5,206.5 C 187.153,206.66 188.486,207.326 189.5,208.5C 188.169,215.97 187.502,223.804 187.5,232C 187.5,240.007 187.834,247.841 188.5,255.5C 188.5,256.167 188.167,256.5 187.5,256.5C 186.82,239.931 186.153,223.265 185.5,206.5 Z"/></g>
<g><path style="opacity:1" fill="#d2d2d2" d="M 211.5,199.5 C 213.708,200.894 215.208,202.894 216,205.5C 216.965,203.74 218.132,203.406 219.5,204.5C 218.617,205.548 217.95,206.715 217.5,208C 219.078,209.972 219.911,212.138 220,214.5C 218.257,212.679 216.757,210.679 215.5,208.5C 210.665,210.806 210.331,209.972 214.5,206C 213.086,204.007 212.086,201.84 211.5,199.5 Z"/></g>
<g><path style="opacity:1" fill="#23274a" d="M 189.5,208.5 C 190.492,208.328 191.158,208.662 191.5,209.5C 191.833,224.182 191.499,238.848 190.5,253.5C 189.478,253.855 188.811,254.522 188.5,255.5C 187.834,247.841 187.5,240.007 187.5,232C 187.502,223.804 188.169,215.97 189.5,208.5 Z"/></g>
<g><path style="opacity:1" fill="#232749" d="M 277.5,208.5 C 278.831,215.803 279.498,223.47 279.5,231.5C 279.167,239.167 278.833,246.833 278.5,254.5C 277.833,254.167 277.167,253.833 276.5,253.5C 275.501,238.848 275.167,224.182 275.5,209.5C 276.492,209.672 277.158,209.338 277.5,208.5 Z"/></g>
<g><path style="opacity:1" fill="#b3bbf7" d="M 193.5,210.5 C 196.856,212.599 200.356,214.599 204,216.5C 204.796,219.039 204.629,221.372 203.5,223.5C 200.193,221.847 196.86,220.18 193.5,218.5C 192.2,215.691 192.2,213.024 193.5,210.5 Z"/></g>
<g><path style="opacity:1" fill="#4e537d" d="M 273.5,210.5 C 274.156,211.622 274.489,212.955 274.5,214.5C 274.351,216.32 273.684,217.82 272.5,219C 269.5,220.5 266.5,222 263.5,223.5C 262.271,220.801 262.271,218.135 263.5,215.5C 267.151,214.341 270.485,212.674 273.5,210.5 Z"/></g>
<g><path style="opacity:1" fill="#afb7f2" d="M 155.5,235.5 C 151.818,232.992 147.818,230.992 143.5,229.5C 143.334,224.489 143.501,219.489 144,214.5C 147.755,216.628 151.588,218.628 155.5,220.5C 156.814,225.652 156.814,230.652 155.5,235.5 Z"/></g>
<g><path style="opacity:1" fill="#4c5179" d="M 323.5,229.5 C 319.849,230.659 316.515,232.326 313.5,234.5C 312.5,234.5 311.5,234.5 310.5,234.5C 310.173,229.786 310.507,225.12 311.5,220.5C 315.412,218.628 319.245,216.628 323,214.5C 323.499,219.489 323.666,224.489 323.5,229.5 Z"/></g>
<g><path style="opacity:1" fill="#b2baf7" d="M 209.5,218.5 C 211.181,220.008 213.181,221.008 215.5,221.5C 215.664,224.187 215.497,226.854 215,229.5C 213.247,228.373 211.413,227.373 209.5,226.5C 208.2,223.691 208.2,221.024 209.5,218.5 Z"/></g>
<g><path style="opacity:1" fill="#4e537c" d="M 257.5,218.5 C 258.8,221.024 258.8,223.691 257.5,226.5C 255.587,227.373 253.753,228.373 252,229.5C 251.503,226.854 251.336,224.187 251.5,221.5C 253.819,221.008 255.819,220.008 257.5,218.5 Z"/></g>
<g><path style="opacity:1" fill="#25273d" d="M 141.5,184.5 C 143.153,184.66 144.486,185.326 145.5,186.5C 144.275,187.152 143.608,188.319 143.5,190C 143.667,191.167 143.833,192.333 144,193.5C 147.755,195.628 151.588,197.628 155.5,199.5C 156.729,196.801 156.729,194.135 155.5,191.5C 157.819,191.992 159.819,192.992 161.5,194.5C 160.275,195.152 159.608,196.319 159.5,198C 159.559,199.436 159.892,200.769 160.5,202C 165.59,205.744 167.59,204.244 166.5,197.5C 167.494,206.986 167.827,216.652 167.5,226.5C 167.167,226.5 166.833,226.5 166.5,226.5C 164.481,225.067 162.314,223.733 160,222.5C 159.501,227.489 159.334,232.489 159.5,237.5C 157.847,237.34 156.514,236.674 155.5,235.5C 156.814,230.652 156.814,225.652 155.5,220.5C 151.588,218.628 147.755,216.628 144,214.5C 143.501,219.489 143.334,224.489 143.5,229.5C 142.818,214.598 142.152,199.598 141.5,184.5 Z"/></g>
<g><path style="opacity:1" fill="#b3bbf7" d="M 159.5,205.5 C 161.84,206.086 164.007,207.086 166,208.5C 166.828,213.202 166.662,217.869 165.5,222.5C 163.587,221.627 161.753,220.627 160,219.5C 159.501,214.845 159.334,210.179 159.5,205.5 Z"/></g>
<g><path style="opacity:1" fill="#afb7f2" d="M 143.5,197.5 C 147.693,199.425 152.026,201.092 156.5,202.5C 156.827,207.544 156.494,212.544 155.5,217.5C 151.588,215.628 147.755,213.628 144,211.5C 143.501,206.845 143.334,202.179 143.5,197.5 Z"/></g>
<g><path style="opacity:1" fill="#b3bbf8" d="M 166.5,226.5 C 166.818,231.032 166.485,235.366 165.5,239.5C 163.5,238.833 161.5,238.167 159.5,237.5C 159.334,232.489 159.501,227.489 160,222.5C 162.314,223.733 164.481,225.067 166.5,226.5 Z"/></g>
<g><path style="opacity:1" fill="#4e537c" d="M 307.5,237.5 C 305.181,237.992 303.181,238.992 301.5,240.5C 300.186,235.652 300.186,230.652 301.5,225.5C 303.413,224.627 305.247,223.627 307,222.5C 307.499,227.489 307.666,232.489 307.5,237.5 Z"/></g>
<g><path style="opacity:1" fill="#2a3286" d="M 225.5,226.5 C 227.635,228.071 229.968,229.404 232.5,230.5C 232.667,314.501 232.5,398.501 232,482.5C 229.552,481.027 227.052,479.693 224.5,478.5C 224.167,394.332 224.501,310.332 225.5,226.5 Z"/></g>
<g><path style="opacity:1" fill="#1f2241" d="M 137.5,182.5 C 139.153,182.66 140.486,183.326 141.5,184.5C 142.152,199.598 142.818,214.598 143.5,229.5C 147.818,230.992 151.818,232.992 155.5,235.5C 156.514,236.674 157.847,237.34 159.5,237.5C 161.5,238.167 163.5,238.833 165.5,239.5C 165.842,240.338 166.508,240.672 167.5,240.5C 167.5,242.5 167.5,244.5 167.5,246.5C 157.733,242.117 148.066,237.45 138.5,232.5C 137.501,215.847 137.167,199.18 137.5,182.5 Z"/></g>
<g><path style="opacity:1" fill="#1e255f" d="M 232.5,230.5 C 233.499,314.665 233.833,398.998 233.5,483.5C 234.5,483.5 235.5,483.5 236.5,483.5C 241.5,483.5 246.5,483.5 251.5,483.5C 251.167,484.167 250.833,484.833 250.5,485.5C 250.167,485.5 249.833,485.5 249.5,485.5C 244.015,484.673 238.348,484.173 232.5,484C 229.609,482.726 226.942,481.226 224.5,479.5C 224.5,479.167 224.5,478.833 224.5,478.5C 227.052,479.693 229.552,481.027 232,482.5C 232.5,398.501 232.667,314.501 232.5,230.5 Z"/></g>
<g><path style="opacity:1" fill="#111224" d="M 232.5,200.5 C 233.5,200.5 234.5,200.5 235.5,200.5C 235.5,200.833 235.5,201.167 235.5,201.5C 234.167,210.833 234.167,220.167 235.5,229.5C 234.836,271.763 234.503,314.096 234.5,356.5C 234.505,399.045 235.172,441.378 236.5,483.5C 235.5,483.5 234.5,483.5 233.5,483.5C 233.833,398.998 233.499,314.665 232.5,230.5C 233.833,220.5 233.833,210.5 232.5,200.5 Z"/></g>
<g><path style="opacity:1" fill="#25283f" d="M 191.5,209.5 C 192.492,209.328 193.158,209.662 193.5,210.5C 192.2,213.024 192.2,215.691 193.5,218.5C 196.86,220.18 200.193,221.847 203.5,223.5C 203.56,224.043 203.893,224.376 204.5,224.5C 205.167,221.833 205.833,219.167 206.5,216.5C 207.739,216.942 208.739,217.609 209.5,218.5C 208.2,221.024 208.2,223.691 209.5,226.5C 211.413,227.373 213.247,228.373 215,229.5C 215.497,226.854 215.664,224.187 215.5,221.5C 216.492,221.328 217.158,221.662 217.5,222.5C 216.504,238.325 216.17,254.325 216.5,270.5C 206.409,266.62 196.742,261.954 187.5,256.5C 188.167,256.5 188.5,256.167 188.5,255.5C 188.811,254.522 189.478,253.855 190.5,253.5C 191.499,238.848 191.833,224.182 191.5,209.5 Z"/></g>
<g><path style="opacity:1" fill="#b4bcf8" d="M 192.5,221.5 C 196.385,223.36 200.219,225.36 204,227.5C 204.667,232.167 204.667,236.833 204,241.5C 200.354,239.342 196.52,237.676 192.5,236.5C 192.5,231.5 192.5,226.5 192.5,221.5 Z"/></g>
<g><path style="opacity:1" fill="#181a2b" d="M 281.5,206.5 C 280.681,223.093 280.181,239.76 280,256.5C 279.586,256.957 279.086,257.291 278.5,257.5C 278.15,255.433 276.483,254.433 273.5,254.5C 274.779,249.551 274.779,244.551 273.5,239.5C 270.167,241.167 266.833,242.833 263.5,244.5C 262.186,249.652 262.186,254.652 263.5,259.5C 262.739,260.391 261.739,261.058 260.5,261.5C 259.833,256.683 259.166,252.017 258.5,247.5C 252.283,248.058 249.949,251.391 251.5,257.5C 251.529,260.269 252.195,262.603 253.5,264.5C 250.982,266.357 250.982,268.19 253.5,270C 252.584,270.374 251.75,270.874 251,271.5C 250.831,254.995 250.331,238.662 249.5,222.5C 249.842,221.662 250.508,221.328 251.5,221.5C 251.336,224.187 251.503,226.854 252,229.5C 253.753,228.373 255.587,227.373 257.5,226.5C 258.8,223.691 258.8,221.024 257.5,218.5C 259.181,216.992 261.181,215.992 263.5,215.5C 262.271,218.135 262.271,220.801 263.5,223.5C 266.5,222 269.5,220.5 272.5,219C 273.684,217.82 274.351,216.32 274.5,214.5C 274.489,212.955 274.156,211.622 273.5,210.5C 273.842,209.662 274.508,209.328 275.5,209.5C 275.167,224.182 275.501,238.848 276.5,253.5C 277.167,253.833 277.833,254.167 278.5,254.5C 278.833,246.833 279.167,239.167 279.5,231.5C 279.498,223.47 278.831,215.803 277.5,208.5C 278.514,207.326 279.847,206.66 281.5,206.5 Z"/></g>
<g><path style="opacity:1" fill="#4e537c" d="M 273.5,221.5 C 274.814,226.348 274.814,231.348 273.5,236.5C 270.167,238.167 266.833,239.833 263.5,241.5C 262.338,236.869 262.172,232.202 263,227.5C 266.644,225.599 270.144,223.599 273.5,221.5 Z"/></g>
<g><path style="opacity:1" fill="#242b71" d="M 179.5,203.5 C 179.5,203.833 179.5,204.167 179.5,204.5C 178.502,229.328 178.169,254.328 178.5,279.5C 178.5,286.5 178.5,293.5 178.5,300.5C 178.5,351.5 178.5,402.5 178.5,453.5C 177.833,453.5 177.5,453.167 177.5,452.5C 176.836,369.16 177.503,286.16 179.5,203.5 Z"/></g>
<g><path style="opacity:1" fill="#444fc1" d="M 114.5,417.5 C 115.317,419.969 115.817,422.635 116,425.5C 118.659,427.246 121.492,428.58 124.5,429.5C 124.5,430.167 124.833,430.5 125.5,430.5C 158.372,447.103 191.372,463.436 224.5,479.5C 226.942,481.226 229.609,482.726 232.5,484C 238.348,484.173 244.015,484.673 249.5,485.5C 244.375,487.562 239.375,489.896 234.5,492.5C 189.62,471.06 144.953,449.06 100.5,426.5C 99.7025,426.043 99.3691,425.376 99.5,424.5C 104.375,421.896 109.375,419.562 114.5,417.5 Z"/></g>
<g><path style="opacity:1" fill="#2a3283" d="M 98.5,426.5 C 142.617,449.059 186.95,471.392 231.5,493.5C 232.8,496.309 232.8,498.976 231.5,501.5C 187.065,479.783 142.732,457.783 98.5,435.5C 97.1968,432.355 97.1968,429.355 98.5,426.5 Z"/></g>
<g><path style="opacity:1" fill="#232749" d="M 368.5,426.5 C 369.803,429.355 369.803,432.355 368.5,435.5C 323.922,457.705 279.422,480.039 235,502.5C 234.502,499.518 234.335,496.518 234.5,493.5C 234.5,493.167 234.5,492.833 234.5,492.5C 239.375,489.896 244.375,487.562 249.5,485.5C 249.833,485.5 250.167,485.5 250.5,485.5C 290.151,466.341 329.484,446.675 368.5,426.5 Z"/></g>
<g><path style="opacity:1" fill="#15172a" d="M 339.5,177.5 C 340.666,261.332 340.832,345.332 340,429.5C 339.283,430.044 338.783,430.711 338.5,431.5C 307.05,447.726 275.383,463.726 243.5,479.5C 242.833,395.001 242.167,310.668 241.5,226.5C 241.56,225.957 241.893,225.624 242.5,225.5C 243.167,308.999 243.833,392.332 244.5,475.5C 259.373,467.897 274.373,460.564 289.5,453.5C 290.492,453.672 291.158,453.338 291.5,452.5C 306.833,444.5 322.167,436.5 337.5,428.5C 338.833,345.098 338.833,261.598 337.5,178C 338.094,177.536 338.761,177.369 339.5,177.5 Z"/></g>
<g><path style="opacity:1" fill="#232649" d="M 326.5,421.5 C 318.385,426.059 310.052,430.392 301.5,434.5C 300.269,433.349 300.269,432.183 301.5,431C 308.386,427.726 315.053,424.226 321.5,420.5C 322.496,420.586 323.329,420.252 324,419.5C 324.167,403.156 324.667,386.823 325.5,370.5C 326.167,370.167 326.833,369.833 327.5,369.5C 327.833,378 328.167,386.5 328.5,395C 328.471,404.064 327.805,412.897 326.5,421.5 Z"/></g>
<g><path style="opacity:1" fill="#0d0e19" d="M 277.5,392.5 C 278.5,392.5 279.5,392.5 280.5,392.5C 280.667,410.503 280.5,428.503 280,446.5C 270.452,451.858 260.619,456.525 250.5,460.5C 250.333,442.497 250.5,424.497 251,406.5C 251.333,422.5 251.667,438.5 252,454.5C 258.84,452.056 259.006,452.389 252.5,455.5C 251.386,456.723 251.219,458.056 252,459.5C 260.755,454.872 269.589,450.372 278.5,446C 277.391,445.362 276.225,444.862 275,444.5C 269.895,447.146 264.728,449.312 259.5,451C 264.008,448.246 268.674,445.746 273.5,443.5C 274.833,427.833 274.833,412.167 273.5,396.5C 268.043,398.638 263.21,401.638 259,405.5C 257.933,404.809 256.766,404.309 255.5,404C 263.052,400.392 270.386,396.559 277.5,392.5 Z"/></g>
<g><path style="opacity:1" fill="#23274a" d="M 278.5,393.5 C 279.827,410.338 279.827,427.338 278.5,444.5C 277.833,444.167 277.167,443.833 276.5,443.5C 275.334,427.51 275.167,411.51 276,395.5C 276.995,394.934 277.828,394.267 278.5,393.5 Z"/></g>
<g><path style="opacity:1" fill="#141629" d="M 322.5,370.5 C 322.5,370.833 322.5,371.167 322.5,371.5C 315.719,375.392 308.719,379.059 301.5,382.5C 300.167,398.167 300.167,413.833 301.5,429.5C 307.962,425.934 314.629,422.934 321.5,420.5C 315.053,424.226 308.386,427.726 301.5,431C 300.269,432.183 300.269,433.349 301.5,434.5C 310.052,430.392 318.385,426.059 326.5,421.5C 327.167,421.5 327.5,421.833 327.5,422.5C 318.258,427.954 308.591,432.62 298.5,436.5C 298.333,418.497 298.5,400.497 299,382.5C 306.782,378.359 314.615,374.359 322.5,370.5 Z"/></g>
<g><path style="opacity:1" fill="#23274a" d="M 322.5,371.5 C 323.661,386.995 323.828,402.661 323,418.5C 322.283,419.044 321.783,419.711 321.5,420.5C 314.629,422.934 307.962,425.934 301.5,429.5C 300.167,413.833 300.167,398.167 301.5,382.5C 308.719,379.059 315.719,375.392 322.5,371.5 Z"/></g>
<g><path style="opacity:1" fill="#0b0c16" d="M 327.5,422.5 C 327.5,421.833 327.167,421.5 326.5,421.5C 327.805,412.897 328.471,404.064 328.5,395C 328.167,386.5 327.833,378 327.5,369.5C 326.833,369.833 326.167,370.167 325.5,370.5C 324.667,386.823 324.167,403.156 324,419.5C 323.329,420.252 322.496,420.586 321.5,420.5C 321.783,419.711 322.283,419.044 323,418.5C 323.828,402.661 323.661,386.995 322.5,371.5C 322.5,371.167 322.5,370.833 322.5,370.5C 324.473,369.513 326.473,368.513 328.5,367.5C 328.833,376.667 329.167,385.833 329.5,395C 329.498,404.525 328.832,413.692 327.5,422.5 Z"/></g>
<g><path style="opacity:1" fill="#090b14" d="M 250.5,343.5 C 251.174,359.569 251.84,375.735 252.5,392C 251.721,393.994 251.387,395.828 251.5,397.5C 250.5,379.512 250.167,361.512 250.5,343.5 Z"/></g>
<g><path style="opacity:1" fill="#0c0d19" d="M 277.5,381.5 C 273.772,382.383 270.105,383.216 266.5,384C 268.833,382.833 271.167,381.667 273.5,380.5C 274.469,363.903 274.803,347.57 274.5,331.5C 274.866,348.392 275.866,365.058 277.5,381.5 Z"/></g>
<g><path style="opacity:1" fill="#080812" d="M 277.5,381.5 C 278.831,373.361 279.498,364.861 279.5,356C 279.485,347.102 278.818,338.435 277.5,330C 278.416,329.626 279.25,329.126 280,328.5C 280.833,346.842 280.666,365.176 279.5,383.5C 278.478,383.145 277.811,382.478 277.5,381.5 Z"/></g>
<g><path style="opacity:1" fill="#10111f" d="M 299.5,318.5 C 300.239,318.369 300.906,318.536 301.5,319C 300.176,334.77 300.176,350.603 301.5,366.5C 305.714,364.05 310.048,362.217 314.5,361C 310.192,363.988 305.525,366.155 300.5,367.5C 300.227,369.451 300.893,370.951 302.5,372C 301.584,372.374 300.75,372.874 300,373.5C 299.5,355.17 299.333,336.836 299.5,318.5 Z"/></g>
<g><path style="opacity:1" fill="#0a0b16" d="M 323.5,306.5 C 324.239,306.369 324.906,306.536 325.5,307C 324.167,323.333 324.167,339.667 325.5,356C 323.956,357.187 322.289,357.52 320.5,357C 321.416,356.626 322.25,356.126 323,355.5C 323.167,347.667 323.333,339.833 323.5,332C 323.483,323.766 322.817,315.766 321.5,308C 322.416,307.722 323.082,307.222 323.5,306.5 Z"/></g>
<g><path style="opacity:1" fill="#090a13" d="M 327.5,305.5 C 327.56,304.957 327.893,304.624 328.5,304.5C 329.666,322.491 329.833,340.491 329,358.5C 328.586,358.957 328.086,359.291 327.5,359.5C 328.798,341.747 328.798,323.747 327.5,305.5 Z"/></g>
<g><path style="opacity:1" fill="#0d0e19" d="M 277.5,317.5 C 278.831,309.361 279.498,300.861 279.5,292C 279.485,283.102 278.818,274.435 277.5,266C 278.416,265.626 279.25,265.126 280,264.5C 280.667,282.833 280.667,301.167 280,319.5C 270.452,324.858 260.619,329.525 250.5,333.5C 250.333,315.497 250.5,297.497 251,279.5C 251.333,295.5 251.667,311.5 252,327.5C 259.089,323.706 266.255,320.039 273.5,316.5C 274.469,299.903 274.803,283.57 274.5,267.5C 274.866,284.392 275.866,301.058 277.5,317.5 Z"/></g>
<g><path style="opacity:1" fill="#232749" d="M 277.5,317.5 C 277.611,318.117 277.944,318.617 278.5,319C 269.589,323.372 260.755,327.872 252,332.5C 251.219,331.056 251.386,329.723 252.5,328.5C 260.529,323.982 268.863,320.315 277.5,317.5 Z"/></g>
<g><path style="opacity:1" fill="#0f101d" d="M 327.5,241.5 C 327.56,240.957 327.893,240.624 328.5,240.5C 329.666,258.491 329.833,276.491 329,294.5C 319.737,299.882 310.237,304.882 300.5,309.5C 299.167,291.167 299.167,272.833 300.5,254.5C 300.198,270.237 300.531,286.237 301.5,302.5C 308.745,298.961 315.911,295.294 323,291.5C 323.167,283.667 323.333,275.833 323.5,268C 323.483,259.766 322.817,251.766 321.5,244C 322.759,243.018 324.092,242.685 325.5,243C 324.342,259.093 324.176,275.259 325,291.5C 326,292.167 327,292.833 328,293.5C 328.829,275.995 328.662,258.662 327.5,241.5 Z"/></g>
<g><path style="opacity:1" fill="#232749" d="M 323.5,292.5 C 325.645,292.917 326.312,293.917 325.5,295.5C 317.5,299.5 309.5,303.5 301.5,307.5C 300.269,306.349 300.269,305.183 301.5,304C 309.052,300.392 316.386,296.559 323.5,292.5 Z"/></g>
<g><path style="opacity:1" fill="#4e537d" d="M 258.5,247.5 C 258.666,252.179 258.499,256.845 258,261.5C 256.348,262.399 254.848,263.399 253.5,264.5C 252.195,262.603 251.529,260.269 251.5,257.5C 249.949,251.391 252.283,248.058 258.5,247.5 Z"/></g>
<g><path style="opacity:1" fill="#4e537c" d="M 273.5,254.5 C 269.849,255.659 266.515,257.326 263.5,259.5C 262.186,254.652 262.186,249.652 263.5,244.5C 266.833,242.833 270.167,241.167 273.5,239.5C 274.779,244.551 274.779,249.551 273.5,254.5 Z"/></g>
<g><path style="opacity:1" fill="#4e537c" d="M 257.5,229.5 C 258.814,234.348 258.814,239.348 257.5,244.5C 255.587,245.373 253.753,246.373 252,247.5C 251.171,242.467 251.338,237.467 252.5,232.5C 254.396,231.725 256.063,230.725 257.5,229.5 Z"/></g>
<g><path style="opacity:1" fill="#131424" d="M 367.5,424.5 C 368.338,424.842 368.672,425.508 368.5,426.5C 329.484,446.675 290.151,466.341 250.5,485.5C 250.833,484.833 251.167,484.167 251.5,483.5C 289.935,464.783 328.268,445.783 366.5,426.5C 367.298,426.043 367.631,425.376 367.5,424.5 Z"/></g>
<g><path style="opacity:1" fill="#14162d" d="M 127.5,177.5 C 129.153,177.66 130.486,178.326 131.5,179.5C 130.5,179.5 129.5,179.5 128.5,179.5C 128.333,262.501 128.5,345.501 129,428.5C 144.782,436.641 160.615,444.641 176.5,452.5C 176.833,452.5 177.167,452.5 177.5,452.5C 177.5,453.167 177.833,453.5 178.5,453.5C 193.14,460.82 207.807,468.153 222.5,475.5C 223.5,392.169 223.833,308.836 223.5,225.5C 224.492,225.328 225.158,225.662 225.5,226.5C 224.501,310.332 224.167,394.332 224.5,478.5C 224.5,478.833 224.5,479.167 224.5,479.5C 191.372,463.436 158.372,447.103 125.5,430.5C 125.5,430.167 125.5,429.833 125.5,429.5C 127.497,345.84 128.164,261.84 127.5,177.5 Z"/></g>
<g><path style="opacity:1" fill="#1a1e3b" d="M 188.5,446.5 C 190.072,445.313 191.739,444.313 193.5,443.5C 200.718,447.026 207.885,450.693 215,454.5C 215.333,438.5 215.667,422.5 216,406.5C 216.833,424.509 216.666,442.509 215.5,460.5C 206.282,456.059 197.282,451.392 188.5,446.5 Z"/></g>
<g><path style="opacity:1" fill="#1d203f" d="M 143.5,370.5 C 142.176,387.07 142.176,403.07 143.5,418.5C 150.798,422.16 158.131,425.827 165.5,429.5C 167.148,431.456 167.815,433.789 167.5,436.5C 157.615,431.641 147.782,426.641 138,421.5C 137.167,403.491 137.334,385.491 138.5,367.5C 140.396,368.275 142.063,369.275 143.5,370.5 Z"/></g>
<g><path style="opacity:1" fill="#0a0c1b" d="M 193.5,443.5 C 191.739,444.313 190.072,445.313 188.5,446.5C 186.513,428.864 185.847,410.864 186.5,392.5C 189.016,392.755 191.35,393.589 193.5,395C 192.17,411.264 192.17,427.431 193.5,443.5 Z"/></g>
<g><path style="opacity:1" fill="#23284a" d="M 187.5,393.5 C 188.721,394.028 189.887,394.695 191,395.5C 191.833,411.51 191.666,427.51 190.5,443.5C 189.833,443.833 189.167,444.167 188.5,444.5C 187.501,427.513 187.167,410.513 187.5,393.5 Z"/></g>
<g><path style="opacity:1" fill="#1a1e50" d="M 167.5,436.5 C 167.815,433.789 167.148,431.456 165.5,429.5C 166.83,413.764 166.83,397.931 165.5,382C 166.449,381.383 167.282,381.549 168,382.5C 168.829,400.671 168.662,418.671 167.5,436.5 Z"/></g>
<g><path style="opacity:1" fill="#1c203f" d="M 186.5,329.5 C 186.56,328.957 186.893,328.624 187.5,328.5C 188.901,329.521 190.235,330.521 191.5,331.5C 191.17,348.009 191.504,364.342 192.5,380.5C 200.178,383.755 207.678,387.422 215,391.5C 215.833,375.49 215.666,359.49 214.5,343.5C 207.281,340.059 200.281,336.392 193.5,332.5C 193.5,332.167 193.5,331.833 193.5,331.5C 200.807,335.153 208.14,338.82 215.5,342.5C 216.833,360.833 216.833,379.167 215.5,397.5C 206.282,393.059 197.282,388.392 188.5,383.5C 188.611,382.883 188.944,382.383 189.5,382C 187.848,364.563 186.848,347.063 186.5,329.5 Z"/></g>
<g><path style="opacity:1" fill="#0c0e1b" d="M 143.5,370.5 C 144.239,370.369 144.906,370.536 145.5,371C 143.524,386.593 142.858,402.426 143.5,418.5C 142.176,403.07 142.176,387.07 143.5,370.5 Z"/></g>
<g><path style="opacity:1" fill="#1f2343" d="M 143.5,355.5 C 150.692,358.928 157.692,362.595 164.5,366.5C 166.14,367.79 166.64,369.457 166,371.5C 157.911,367.206 149.745,363.039 141.5,359C 140.402,358.23 140.402,357.397 141.5,356.5C 142.492,356.672 143.158,356.338 143.5,355.5 Z"/></g>
<g><path style="opacity:1" fill="#2a3285" d="M 193.5,332.5 C 200.281,336.392 207.281,340.059 214.5,343.5C 215.666,359.49 215.833,375.49 215,391.5C 207.678,387.422 200.178,383.755 192.5,380.5C 192.17,364.325 192.504,348.325 193.5,332.5 Z"/></g>
<g><path style="opacity:1" fill="#070a1a" d="M 191.5,331.5 C 192.167,331.5 192.833,331.5 193.5,331.5C 193.5,331.833 193.5,332.167 193.5,332.5C 192.504,348.325 192.17,364.325 192.5,380.5C 191.504,364.342 191.17,348.009 191.5,331.5 Z"/></g>
<g><path style="opacity:1" fill="#090916" d="M 186.5,329.5 C 186.848,347.063 187.848,364.563 189.5,382C 188.944,382.383 188.611,382.883 188.5,383.5C 186.513,365.864 185.847,347.864 186.5,329.5 Z"/></g>
<g><path style="opacity:1" fill="#191d38" d="M 181.5,318.5 C 184.084,319.048 185.084,320.715 184.5,323.5C 179.516,323.856 178.516,322.189 181.5,318.5 Z"/></g>
<g><path style="opacity:1" fill="#1e2460" d="M 167.5,318.5 C 168.827,336.671 168.827,355.004 167.5,373.5C 166.893,373.376 166.56,373.043 166.5,372.5C 167.461,370.735 167.795,368.735 167.5,366.5C 167.5,350.5 167.5,334.5 167.5,318.5 Z"/></g>
<g><path style="opacity:1" fill="#161b45" d="M 143.5,306.5 C 151.5,310.5 159.5,314.5 167.5,318.5C 167.5,334.5 167.5,350.5 167.5,366.5C 167.167,366.5 166.833,366.5 166.5,366.5C 166.667,350.83 166.5,335.163 166,319.5C 158.678,315.422 151.178,311.755 143.5,308.5C 143.5,307.833 143.5,307.167 143.5,306.5 Z"/></g>
<g><path style="opacity:1" fill="#191c3a" d="M 188.5,319.5 C 188.833,318.833 189.167,318.167 189.5,317.5C 191.099,317.768 192.432,317.434 193.5,316.5C 200.718,320.026 207.885,323.693 215,327.5C 215.833,311.49 215.666,295.49 214.5,279.5C 211.5,278 208.5,276.5 205.5,275C 209.002,275.23 212.335,276.397 215.5,278.5C 216.833,296.833 216.833,315.167 215.5,333.5C 206.282,329.059 197.282,324.392 188.5,319.5 Z"/></g>
<g><path style="opacity:1" fill="#2a3285" d="M 143.5,308.5 C 151.178,311.755 158.678,315.422 166,319.5C 166.5,335.163 166.667,350.83 166.5,366.5C 165.833,366.5 165.167,366.5 164.5,366.5C 157.692,362.595 150.692,358.928 143.5,355.5C 143.5,339.833 143.5,324.167 143.5,308.5 Z"/></g>
<g><path style="opacity:1" fill="#10122a" d="M 139.5,305.5 C 138.338,322.662 138.171,339.995 139,357.5C 139.671,356.748 140.504,356.414 141.5,356.5C 140.402,357.397 140.402,358.23 141.5,359C 149.745,363.039 157.911,367.206 166,371.5C 166.64,369.457 166.14,367.79 164.5,366.5C 165.167,366.5 165.833,366.5 166.5,366.5C 166.833,366.5 167.167,366.5 167.5,366.5C 167.795,368.735 167.461,370.735 166.5,372.5C 156.822,368.245 147.322,363.578 138,358.5C 137.167,340.491 137.334,322.491 138.5,304.5C 139.107,304.624 139.44,304.957 139.5,305.5 Z"/></g>
<g><path style="opacity:1" fill="#0a0c19" d="M 141.5,306.5 C 142.167,306.5 142.833,306.5 143.5,306.5C 143.5,307.167 143.5,307.833 143.5,308.5C 143.5,324.167 143.5,339.833 143.5,355.5C 143.158,356.338 142.492,356.672 141.5,356.5C 142.833,339.833 142.833,323.167 141.5,306.5 Z"/></g>
<g><path style="opacity:1" fill="#232649" d="M 139.5,305.5 C 140.492,305.328 141.158,305.662 141.5,306.5C 142.833,323.167 142.833,339.833 141.5,356.5C 140.504,356.414 139.671,356.748 139,357.5C 138.171,339.995 138.338,322.662 139.5,305.5 Z"/></g>
<g><path style="opacity:1" fill="#1f2249" d="M 145.5,244.5 C 146.492,244.328 147.158,244.662 147.5,245.5C 146.169,252.636 145.503,260.136 145.5,268C 145.5,275.674 145.834,283.174 146.5,290.5C 152.641,294.072 158.974,297.405 165.5,300.5C 165.56,301.043 165.893,301.376 166.5,301.5C 167.8,298.691 167.8,296.024 166.5,293.5C 165.833,293.5 165.5,293.167 165.5,292.5C 167.424,292.289 167.757,291.623 166.5,290.5C 167.301,288.958 167.634,287.292 167.5,285.5C 167.218,284.222 166.551,283.222 165.5,282.5C 167.424,282.289 167.757,281.623 166.5,280.5C 167.782,277.064 167.782,273.731 166.5,270.5C 167.756,268.059 167.756,265.726 166.5,263.5C 166.062,263.565 165.728,263.399 165.5,263C 167.291,260.894 167.958,258.394 167.5,255.5C 168.49,261.645 168.823,267.978 168.5,274.5C 168.205,281.588 168.538,288.588 169.5,295.5C 168.834,300.017 168.167,304.683 167.5,309.5C 158.282,305.059 149.282,300.392 140.5,295.5C 140.75,294.078 141.583,293.078 143,292.5C 142.845,276.135 143.679,260.135 145.5,244.5 Z"/></g>
<g><path style="opacity:1" fill="#818181" d="M 166.5,293.5 C 167.8,296.024 167.8,298.691 166.5,301.5C 165.893,301.376 165.56,301.043 165.5,300.5C 166.468,298.393 166.802,296.059 166.5,293.5 Z"/></g>
<g><path style="opacity:1" fill="#757575" d="M 167.5,285.5 C 167.634,287.292 167.301,288.958 166.5,290.5C 160.036,287.434 153.702,284.101 147.5,280.5C 153.417,282.439 159.417,285.106 165.5,288.5C 166.604,287.369 166.271,286.535 164.5,286C 165.448,285.517 166.448,285.351 167.5,285.5 Z"/></g>
<g><path style="opacity:1" fill="#f6f6f5" d="M 165.5,292.5 C 165.5,293.167 165.833,293.5 166.5,293.5C 166.802,296.059 166.468,298.393 165.5,300.5C 158.974,297.405 152.641,294.072 146.5,290.5C 146.5,288.5 146.5,286.5 146.5,284.5C 152.938,286.885 159.271,289.551 165.5,292.5 Z"/></g>
<g><path style="opacity:1" fill="#16182e" d="M 178.5,300.5 C 178.5,293.5 178.5,286.5 178.5,279.5C 180.591,278.197 182.257,278.697 183.5,281C 180.833,287 180.833,293 183.5,299C 182.576,301.79 180.909,302.29 178.5,300.5 Z"/></g>
<g><path style="opacity:1" fill="#171932" d="M 169.5,295.5 C 168.538,288.588 168.205,281.588 168.5,274.5C 170.929,273.361 172.929,274.027 174.5,276.5C 171.865,282.272 171.865,288.106 174.5,294C 173.257,296.303 171.591,296.803 169.5,295.5 Z"/></g>
<g><path style="opacity:1" fill="#080b1b" d="M 191.5,267.5 C 192.239,267.369 192.906,267.536 193.5,268C 192.17,284.264 192.17,300.431 193.5,316.5C 192.432,317.434 191.099,317.768 189.5,317.5C 191.463,301.072 192.13,284.405 191.5,267.5 Z"/></g>
<g><path style="opacity:1" fill="#f2f2f2" d="M 147.5,267.5 C 153.964,270.566 160.298,273.899 166.5,277.5C 160.165,275.934 153.999,273.267 148,269.5C 147.312,270.332 147.479,270.998 148.5,271.5C 154.527,274.513 160.527,277.513 166.5,280.5C 167.757,281.623 167.424,282.289 165.5,282.5C 160.053,279.274 154.387,276.274 148.5,273.5C 147.914,273.709 147.414,274.043 147,274.5C 146.204,271.961 146.371,269.628 147.5,267.5 Z"/></g>
<g><path style="opacity:1" fill="#23274a" d="M 189.5,266.5 C 190.492,266.328 191.158,266.662 191.5,267.5C 192.13,284.405 191.463,301.072 189.5,317.5C 188.169,309.361 187.502,300.861 187.5,292C 187.502,283.139 188.169,274.639 189.5,266.5 Z"/></g>
<g><path style="opacity:1" fill="#787878" d="M 147.5,267.5 C 147.5,267.167 147.5,266.833 147.5,266.5C 153.844,269.088 160.011,272.088 166,275.5C 166.494,273.866 166.66,272.199 166.5,270.5C 167.782,273.731 167.782,277.064 166.5,280.5C 160.527,277.513 154.527,274.513 148.5,271.5C 147.479,270.998 147.312,270.332 148,269.5C 153.999,273.267 160.165,275.934 166.5,277.5C 160.298,273.899 153.964,270.566 147.5,267.5 Z"/></g>
<g><path style="opacity:1" fill="#090916" d="M 189.5,266.5 C 188.169,274.639 187.502,283.139 187.5,292C 187.502,300.861 188.169,309.361 189.5,317.5C 189.167,318.167 188.833,318.833 188.5,319.5C 186.513,301.864 185.847,283.864 186.5,265.5C 187.791,265.263 188.791,265.596 189.5,266.5 Z"/></g>
<g><path style="opacity:1" fill="#777777" d="M 147.5,257.5 C 147.56,256.957 147.893,256.624 148.5,256.5C 152.069,258.453 155.736,260.119 159.5,261.5C 161.519,262.933 163.686,264.267 166,265.5C 166.464,264.906 166.631,264.239 166.5,263.5C 167.756,265.726 167.756,268.059 166.5,270.5C 160.036,267.434 153.702,264.101 147.5,260.5C 153.417,262.439 159.417,265.106 165.5,268.5C 166.833,267.833 166.833,267.167 165.5,266.5C 159.473,263.487 153.473,260.487 147.5,257.5 Z"/></g>
<g><path style="opacity:1" fill="#fbfbfb" d="M 147.5,257.5 C 153.473,260.487 159.473,263.487 165.5,266.5C 166.833,267.167 166.833,267.833 165.5,268.5C 159.417,265.106 153.417,262.439 147.5,260.5C 153.702,264.101 160.036,267.434 166.5,270.5C 166.66,272.199 166.494,273.866 166,275.5C 160.011,272.088 153.844,269.088 147.5,266.5C 146.167,263.5 146.167,260.5 147.5,257.5 Z"/></g>
<g><path style="opacity:1" fill="#b3bbf8" d="M 208.5,247.5 C 210.84,248.086 213.007,249.086 215,250.5C 215.828,255.202 215.662,259.869 214.5,264.5C 212.587,263.627 210.753,262.627 209,261.5C 208.501,256.845 208.334,252.179 208.5,247.5 Z"/></g>
<g><path style="opacity:1" fill="#f2f2f2" d="M 147.5,246.5 C 154.167,249.5 160.833,252.5 167.5,255.5C 167.958,258.394 167.291,260.894 165.5,263C 165.728,263.399 166.062,263.565 166.5,263.5C 166.631,264.239 166.464,264.906 166,265.5C 163.686,264.267 161.519,262.933 159.5,261.5C 160.873,261.657 162.207,261.49 163.5,261C 158.5,258.5 153.5,256 148.5,253.5C 147.914,253.709 147.414,254.043 147,254.5C 146.199,251.633 146.366,248.966 147.5,246.5 Z"/></g>
<g><path style="opacity:1" fill="#696f90" d="M 204.5,245.5 C 205.812,250.015 205.812,254.682 204.5,259.5C 203.893,259.376 203.56,259.043 203.5,258.5C 204.485,254.366 204.818,250.032 204.5,245.5 Z"/></g>
<g><path style="opacity:1" fill="#cacaca" d="M 147.5,245.5 C 147.5,245.833 147.5,246.167 147.5,246.5C 146.366,248.966 146.199,251.633 147,254.5C 147.414,254.043 147.914,253.709 148.5,253.5C 153.5,256 158.5,258.5 163.5,261C 162.207,261.49 160.873,261.657 159.5,261.5C 155.736,260.119 152.069,258.453 148.5,256.5C 147.893,256.624 147.56,256.957 147.5,257.5C 146.167,260.5 146.167,263.5 147.5,266.5C 147.5,266.833 147.5,267.167 147.5,267.5C 146.371,269.628 146.204,271.961 147,274.5C 147.414,274.043 147.914,273.709 148.5,273.5C 154.387,276.274 160.053,279.274 165.5,282.5C 166.551,283.222 167.218,284.222 167.5,285.5C 166.448,285.351 165.448,285.517 164.5,286C 166.271,286.535 166.604,287.369 165.5,288.5C 159.417,285.106 153.417,282.439 147.5,280.5C 153.702,284.101 160.036,287.434 166.5,290.5C 167.757,291.623 167.424,292.289 165.5,292.5C 159.271,289.551 152.938,286.885 146.5,284.5C 146.5,286.5 146.5,288.5 146.5,290.5C 145.834,283.174 145.5,275.674 145.5,268C 145.503,260.136 146.169,252.636 147.5,245.5 Z"/></g>
<g><path style="opacity:1" fill="#767676" d="M 147.5,277.5 C 151.335,277.722 155.002,279.222 158.5,282C 154.691,281.104 151.025,279.604 147.5,277.5 Z"/></g>
<g><path style="opacity:1" fill="#0c0d1a" d="M 141.5,242.5 C 143.153,242.66 144.486,243.326 145.5,244.5C 143.679,260.135 142.845,276.135 143,292.5C 141.583,293.078 140.75,294.078 140.5,295.5C 139.508,295.672 138.842,295.338 138.5,294.5C 139.315,293.163 140.482,292.163 142,291.5C 142.817,275.093 142.651,258.759 141.5,242.5 Z"/></g>
<g><path style="opacity:1" fill="#1d213f" d="M 141.5,242.5 C 142.651,258.759 142.817,275.093 142,291.5C 140.482,292.163 139.315,293.163 138.5,294.5C 137.173,276.662 137.173,258.662 138.5,240.5C 139.739,240.942 140.739,241.609 141.5,242.5 Z"/></g>
<g><path style="opacity:1" fill="#b3bbf8" d="M 204.5,245.5 C 204.818,250.032 204.485,254.366 203.5,258.5C 199.824,257.246 196.324,255.579 193,253.5C 192.172,248.798 192.338,244.131 193.5,239.5C 197.389,241.274 201.055,243.274 204.5,245.5 Z"/></g>
<g><path style="opacity:1" fill="#b3bbf7" d="M 208.5,229.5 C 210.68,230.117 212.68,231.117 214.5,232.5C 215.833,237.167 215.833,241.833 214.5,246.5C 212.833,245.833 211.167,245.167 209.5,244.5C 208.506,239.544 208.173,234.544 208.5,229.5 Z"/></g>
<g><path style="opacity:1" fill="#696e90" d="M 166.5,226.5 C 166.833,226.5 167.167,226.5 167.5,226.5C 167.5,231.167 167.5,235.833 167.5,240.5C 166.508,240.672 165.842,240.338 165.5,239.5C 166.485,235.366 166.818,231.032 166.5,226.5 Z"/></g>
<g><path style="opacity:1" fill="#191e4b" d="M 99.5,424.5 C 99.3691,425.376 99.7025,426.043 100.5,426.5C 144.953,449.06 189.62,471.06 234.5,492.5C 234.5,492.833 234.5,493.167 234.5,493.5C 233.834,496.358 233.167,499.358 232.5,502.5C 231.893,502.376 231.56,502.043 231.5,501.5C 232.8,498.976 232.8,496.309 231.5,493.5C 186.95,471.392 142.617,449.059 98.5,426.5C 98.3284,425.508 98.6618,424.842 99.5,424.5 Z"/></g>
</svg>
