<svg width="219.0564453125px" height="122px" xmlns="http://www.w3.org/2000/svg" viewBox="140.47177734375 14 219.0564453125 122" style="background: rgba(0, 0, 0, 0);" preserveAspectRatio="xMidYMid"><defs><filter id="editing-hole" x="-100%" y="-100%" width="300%" height="300%"><feFlood flood-color="#000" result="black"></feFlood><feMorphology operator="dilate" radius="2" in="SourceGraphic" result="erode"></feMorphology><feGaussianBlur in="erode" stdDeviation="4" result="blur"></feGaussianBlur><feOffset in="blur" dx="2" dy="2" result="offset"></feOffset><feComposite operator="atop" in="offset" in2="black" result="merge"></feComposite><feComposite operator="in" in="merge" in2="SourceGraphic" result="inner-shadow"></feComposite></filter></defs><g filter="url(#editing-hole)"><g transform="translate(177.86903202533722, 107.02999877929688)"><path d="M-0.83-3.78L-0.83-3.78L-0.83-3.78Q-0.83-6.21 1.06-7.55L1.06-7.55L1.06-7.55Q2.94-8.90 5.63-8.90L5.63-8.90L5.63-8.90Q8.32-8.90 9.95-7.55L9.95-7.55L9.95-7.55Q11.58-6.21 11.58-3.78L11.58-3.78L11.58-3.78Q11.58-1.34 9.76-0.03L9.76-0.03L9.76-0.03Q7.94 1.28 5.25 1.28L5.25 1.28L5.25 1.28Q2.56 1.28 0.86-0.03L0.86-0.03L0.86-0.03Q-0.83-1.34-0.83-3.78ZM15.62-3.78L15.62-3.78L15.62-3.78Q15.62-6.21 17.50-7.55L17.50-7.55L17.50-7.55Q19.39-8.90 22.08-8.90L22.08-8.90L22.08-8.90Q24.77-8.90 26.40-7.55L26.40-7.55L26.40-7.55Q28.03-6.21 28.03-3.78L28.03-3.78L28.03-3.78Q28.03-1.34 26.21-0.03L26.21-0.03L26.21-0.03Q24.38 1.28 21.70 1.28L21.70 1.28L21.70 1.28Q19.01 1.28 17.31-0.03L17.31-0.03L17.31-0.03Q15.62-1.34 15.62-3.78ZM29.31 9.54L29.31 9.54L29.31 9.54Q29.31 8.38 29.89 6.72L29.89 6.72L50.82-51.07L50.82-51.07Q51.97-51.26 54.24-51.26L54.24-51.26L54.24-51.26Q56.51-51.26 57.89-50.66L57.89-50.66L57.89-50.66Q59.26-50.05 59.26-48.19L59.26-48.19L59.26-48.19Q59.26-46.59 58.24-43.65L58.24-43.65L37.89 12.54L37.89 12.54Q37.38 12.80 34.37 12.80L34.37 12.80L34.37 12.80Q29.31 12.80 29.31 9.54ZM102.66 1.28L102.66 1.28L102.66 1.28Q94.91 1.28 94.91-4.74L94.91-4.74L94.91-4.74Q94.91-7.36 96.03-12.45L96.03-12.45L96.03-12.45Q97.15-17.54 97.54-19.58L97.54-19.58L97.54-19.58Q98.43-24.26 98.43-25.73L98.43-25.73L98.43-25.73Q98.43-28.99 96-28.99L96-28.99L96-28.99Q94.40-28.99 92.86-26.78L92.86-26.78L92.86-26.78Q91.33-24.58 90.62-20.16L90.62-20.16L86.66 0L74.18 1.28L77.63-16.13L77.63-16.13Q78.21-19.01 78.72-22.27L78.72-22.27L78.72-22.27Q79.23-25.54 79.23-26.05L79.23-26.05L79.23-26.05Q79.23-28.99 77.06-28.99L77.06-28.99L77.06-28.99Q75.58-28.99 73.98-26.82L73.98-26.82L73.98-26.82Q72.38-24.64 71.49-20.16L71.49-20.16L67.58 0L54.98 1.28L61.70-32.64L72.13-33.92L71.04-27.46L71.04-27.46Q72.70-30.91 75.78-32.42L75.78-32.42L75.78-32.42Q78.85-33.92 83.65-33.92L83.65-33.92L83.65-33.92Q86.40-33.92 88.19-32.58L88.19-32.58L88.19-32.58Q89.98-31.23 90.56-29.06L90.56-29.06L90.56-29.06Q91.65-31.30 94.43-32.61L94.43-32.61L94.43-32.61Q97.22-33.92 100.64-33.92L100.64-33.92L100.64-33.92Q104.06-33.92 105.76-33.18L105.76-33.18L105.76-33.18Q107.46-32.45 108.48-31.23L108.48-31.23L108.48-31.23Q110.21-28.99 110.21-24.90L110.21-24.90L110.21-24.90Q110.21-20.86 108.48-12.48L108.48-12.48L108.48-12.48Q107.58-8.38 107.58-6.88L107.58-6.88L107.58-6.88Q107.58-5.38 108.45-4.48L108.45-4.48L108.45-4.48Q109.31-3.58 110.59-3.46L110.59-3.46L110.59-3.46Q109.95-1.28 107.74 0L107.74 0L107.74 0Q105.54 1.28 102.66 1.28ZM134.66-22.46L134.66-22.46L134.66-22.46Q135.55-24.83 135.55-26.88L135.55-26.88L135.55-26.88Q135.55-30.66 132.48-30.66L132.48-30.66L132.48-30.66Q130.88-30.66 129.57-29.22L129.57-29.22L129.57-29.22Q128.26-27.78 128.26-25.98L128.26-25.98L128.26-25.98Q128.26-24.70 129.28-23.68L129.28-23.68L129.28-23.68Q130.75-22.27 134.53-19.97L134.53-19.97L134.53-19.97Q138.30-17.66 139.74-15.78L139.74-15.78L139.74-15.78Q141.18-13.89 141.18-11.30L141.18-11.30L141.18-11.30Q141.18-8.70 139.94-6.34L139.94-6.34L139.94-6.34Q138.69-3.97 136.45-2.30L136.45-2.30L136.45-2.30Q131.65 1.28 123.97 1.28L123.97 1.28L123.97 1.28Q119.81 1.28 116.61-0.90L116.61-0.90L116.61-0.90Q113.41-3.01 113.41-5.50L113.41-5.50L113.41-5.50Q113.41-8 115.23-9.47L115.23-9.47L115.23-9.47Q117.06-10.94 119.74-10.94L119.74-10.94L119.74-10.94Q122.43-10.94 124.10-9.92L124.10-9.92L124.10-9.92Q123.26-7.81 123.26-6.40L123.26-6.40L123.26-6.40Q123.26-2.18 126.85-2.18L126.85-2.18L126.85-2.18Q128.38-2.18 129.41-3.14L129.41-3.14L129.41-3.14Q130.43-4.10 130.43-5.76L130.43-5.76L130.43-5.76Q130.43-9.02 124.93-12.48L124.93-12.48L124.93-12.48Q120.45-15.42 119.42-16.58L119.42-16.58L119.42-16.58Q117.70-18.62 117.70-21.18L117.70-21.18L117.70-21.18Q117.70-23.74 118.91-26.18L118.91-26.18L118.91-26.18Q120.13-28.61 122.37-30.34L122.37-30.34L122.37-30.34Q127.04-33.92 135.17-33.92L135.17-33.92L135.17-33.92Q139.33-33.92 141.79-32.26L141.79-32.26L141.79-32.26Q144.26-30.59 144.26-27.78L144.26-27.78L144.26-27.78Q144.26-24.96 142.56-23.36L142.56-23.36L142.56-23.36Q140.86-21.76 137.79-21.76L137.79-21.76L137.79-21.76Q135.68-21.76 134.66-22.46Z" fill="#ccc"></path></g></g><style>text {
  font-size: 64px;
  font-family: Arial Black;
  dominant-baseline: central;
  text-anchor: middle;
}</style></svg>